<svg width="176" height="135" viewBox="0 0 176 135" fill="none" xmlns="http://www.w3.org/2000/svg">
<path d="M168.568 134.23C167.54 134.23 166.619 133.966 165.807 133.438C164.994 132.909 164.352 132.142 163.881 131.136C163.409 130.131 163.173 128.909 163.173 127.472C163.173 126.017 163.412 124.79 163.889 123.79C164.372 122.784 165.023 122.026 165.841 121.514C166.659 120.997 167.571 120.739 168.577 120.739C169.344 120.739 169.974 120.869 170.469 121.131C170.963 121.386 171.355 121.696 171.645 122.06C171.935 122.418 172.159 122.756 172.318 123.074H172.446V116.545H175.54V134H172.506V131.938H172.318C172.159 132.256 171.929 132.594 171.628 132.952C171.327 133.304 170.929 133.605 170.435 133.855C169.94 134.105 169.318 134.23 168.568 134.23ZM169.429 131.699C170.082 131.699 170.639 131.523 171.099 131.17C171.56 130.813 171.909 130.315 172.148 129.679C172.386 129.043 172.506 128.301 172.506 127.455C172.506 126.608 172.386 125.872 172.148 125.247C171.915 124.622 171.568 124.136 171.108 123.79C170.653 123.443 170.094 123.27 169.429 123.27C168.741 123.27 168.168 123.449 167.707 123.807C167.247 124.165 166.901 124.659 166.668 125.29C166.435 125.92 166.318 126.642 166.318 127.455C166.318 128.273 166.435 129.003 166.668 129.645C166.906 130.281 167.256 130.784 167.716 131.153C168.182 131.517 168.753 131.699 169.429 131.699Z" fill="#F7F7F7"/>
<path d="M154.734 134V120.909H157.725V123.091H157.861C158.1 122.335 158.509 121.753 159.089 121.344C159.674 120.929 160.342 120.722 161.092 120.722C161.262 120.722 161.452 120.73 161.663 120.747C161.879 120.759 162.058 120.778 162.2 120.807V123.645C162.069 123.599 161.861 123.56 161.577 123.526C161.299 123.486 161.029 123.466 160.768 123.466C160.205 123.466 159.7 123.588 159.251 123.832C158.808 124.071 158.458 124.403 158.202 124.83C157.947 125.256 157.819 125.747 157.819 126.304V134H154.734Z" fill="#F7F7F7"/>
<path d="M144.719 134.264C143.89 134.264 143.143 134.116 142.478 133.821C141.819 133.52 141.296 133.077 140.91 132.491C140.529 131.906 140.339 131.185 140.339 130.327C140.339 129.588 140.475 128.977 140.748 128.494C141.021 128.011 141.393 127.625 141.864 127.335C142.336 127.045 142.867 126.827 143.458 126.679C144.055 126.526 144.671 126.415 145.307 126.347C146.075 126.267 146.697 126.196 147.174 126.134C147.651 126.065 147.998 125.963 148.214 125.827C148.435 125.685 148.546 125.466 148.546 125.17V125.119C148.546 124.477 148.356 123.98 147.975 123.628C147.594 123.276 147.046 123.099 146.33 123.099C145.575 123.099 144.975 123.264 144.532 123.594C144.094 123.923 143.799 124.313 143.646 124.761L140.765 124.352C140.992 123.557 141.367 122.892 141.89 122.358C142.413 121.818 143.052 121.415 143.807 121.148C144.563 120.875 145.398 120.739 146.313 120.739C146.944 120.739 147.572 120.813 148.197 120.96C148.822 121.108 149.393 121.352 149.91 121.693C150.427 122.028 150.842 122.486 151.154 123.065C151.472 123.645 151.631 124.369 151.631 125.239V134H148.665V132.202H148.563C148.376 132.565 148.111 132.906 147.771 133.224C147.435 133.537 147.012 133.79 146.501 133.983C145.995 134.17 145.401 134.264 144.719 134.264ZM145.521 131.997C146.14 131.997 146.677 131.875 147.131 131.631C147.586 131.381 147.935 131.051 148.18 130.642C148.43 130.233 148.555 129.787 148.555 129.304V127.761C148.458 127.841 148.293 127.915 148.06 127.983C147.833 128.051 147.577 128.111 147.293 128.162C147.009 128.213 146.728 128.259 146.45 128.298C146.171 128.338 145.93 128.372 145.725 128.401C145.265 128.463 144.853 128.565 144.489 128.707C144.126 128.849 143.839 129.048 143.629 129.304C143.418 129.554 143.313 129.878 143.313 130.276C143.313 130.844 143.521 131.273 143.935 131.563C144.35 131.852 144.879 131.997 145.521 131.997Z" fill="#F7F7F7"/>
<path d="M132.061 134.256C130.783 134.256 129.675 133.974 128.737 133.412C127.8 132.849 127.072 132.063 126.555 131.051C126.044 130.04 125.788 128.858 125.788 127.506C125.788 126.153 126.044 124.969 126.555 123.952C127.072 122.935 127.8 122.145 128.737 121.582C129.675 121.02 130.783 120.739 132.061 120.739C133.339 120.739 134.447 121.02 135.385 121.582C136.322 122.145 137.047 122.935 137.558 123.952C138.075 124.969 138.334 126.153 138.334 127.506C138.334 128.858 138.075 130.04 137.558 131.051C137.047 132.063 136.322 132.849 135.385 133.412C134.447 133.974 133.339 134.256 132.061 134.256ZM132.078 131.784C132.771 131.784 133.351 131.594 133.817 131.213C134.283 130.827 134.629 130.31 134.857 129.662C135.089 129.014 135.206 128.293 135.206 127.497C135.206 126.696 135.089 125.972 134.857 125.324C134.629 124.67 134.283 124.151 133.817 123.764C133.351 123.378 132.771 123.185 132.078 123.185C131.368 123.185 130.777 123.378 130.305 123.764C129.839 124.151 129.49 124.67 129.257 125.324C129.03 125.972 128.916 126.696 128.916 127.497C128.916 128.293 129.03 129.014 129.257 129.662C129.49 130.31 129.839 130.827 130.305 131.213C130.777 131.594 131.368 131.784 132.078 131.784Z" fill="#F7F7F7"/>
<path d="M111.37 134V116.545H114.455V123.074H114.583C114.742 122.756 114.967 122.418 115.256 122.06C115.546 121.696 115.938 121.386 116.432 121.131C116.927 120.869 117.558 120.739 118.325 120.739C119.336 120.739 120.248 120.997 121.06 121.514C121.879 122.026 122.526 122.784 123.004 123.79C123.486 124.79 123.728 126.017 123.728 127.472C123.728 128.909 123.492 130.131 123.021 131.136C122.549 132.142 121.907 132.909 121.094 133.438C120.282 133.966 119.361 134.23 118.333 134.23C117.583 134.23 116.961 134.105 116.467 133.855C115.972 133.605 115.575 133.304 115.273 132.952C114.978 132.594 114.748 132.256 114.583 131.938H114.404V134H111.37ZM114.396 127.455C114.396 128.301 114.515 129.043 114.754 129.679C114.998 130.315 115.347 130.813 115.802 131.17C116.262 131.523 116.819 131.699 117.472 131.699C118.154 131.699 118.725 131.517 119.185 131.153C119.646 130.784 119.992 130.281 120.225 129.645C120.464 129.003 120.583 128.273 120.583 127.455C120.583 126.642 120.467 125.92 120.234 125.29C120.001 124.659 119.654 124.165 119.194 123.807C118.734 123.449 118.16 123.27 117.472 123.27C116.813 123.27 116.254 123.443 115.793 123.79C115.333 124.136 114.984 124.622 114.745 125.247C114.512 125.872 114.396 126.608 114.396 127.455Z" fill="#F7F7F7"/>
<path d="M99.6001 126.33V134H96.5149V116.545H99.5319V123.134H99.6853C99.9922 122.395 100.467 121.813 101.109 121.386C101.756 120.955 102.58 120.739 103.58 120.739C104.489 120.739 105.282 120.929 105.958 121.31C106.634 121.69 107.157 122.247 107.526 122.98C107.901 123.713 108.089 124.608 108.089 125.665V134H105.004V126.142C105.004 125.261 104.776 124.577 104.322 124.088C103.873 123.594 103.242 123.347 102.43 123.347C101.884 123.347 101.396 123.466 100.964 123.705C100.538 123.938 100.202 124.276 99.9581 124.719C99.7194 125.162 99.6001 125.699 99.6001 126.33Z" fill="#F7F7F7"/>
<path d="M93.6896 124.369L90.8771 124.676C90.7976 124.392 90.6584 124.125 90.4595 123.875C90.2663 123.625 90.005 123.423 89.6754 123.27C89.3459 123.116 88.9425 123.04 88.4652 123.04C87.8231 123.04 87.2834 123.179 86.8459 123.457C86.4141 123.736 86.201 124.097 86.2067 124.54C86.201 124.92 86.3402 125.23 86.6243 125.469C86.9141 125.707 87.3913 125.903 88.0561 126.057L90.2891 126.534C91.5277 126.801 92.4481 127.224 93.0504 127.804C93.6584 128.384 93.9652 129.142 93.9709 130.08C93.9652 130.903 93.7237 131.631 93.2464 132.261C92.7749 132.886 92.1186 133.375 91.2777 133.727C90.4368 134.08 89.4709 134.256 88.38 134.256C86.7777 134.256 85.4879 133.92 84.5106 133.25C83.5334 132.574 82.951 131.634 82.7635 130.429L85.772 130.139C85.9084 130.73 86.1981 131.176 86.6413 131.477C87.0845 131.778 87.6612 131.929 88.3714 131.929C89.1044 131.929 89.6925 131.778 90.1356 131.477C90.5845 131.176 90.8089 130.804 90.8089 130.361C90.8089 129.986 90.6641 129.676 90.3743 129.432C90.0902 129.188 89.647 129 89.0447 128.869L86.8118 128.401C85.5561 128.139 84.6271 127.699 84.0248 127.08C83.4226 126.455 83.1243 125.665 83.13 124.71C83.1243 123.903 83.343 123.205 83.7862 122.614C84.2351 122.017 84.8572 121.557 85.6527 121.233C86.4538 120.903 87.3771 120.739 88.4226 120.739C89.9567 120.739 91.1641 121.065 92.0447 121.719C92.9311 122.372 93.4794 123.256 93.6896 124.369Z" fill="#F7F7F7"/>
<path d="M73.3288 134.264C72.4993 134.264 71.7521 134.116 71.0874 133.821C70.4283 133.52 69.9055 133.077 69.5192 132.491C69.1385 131.906 68.9482 131.185 68.9482 130.327C68.9482 129.588 69.0845 128.977 69.3572 128.494C69.63 128.011 70.0021 127.625 70.4737 127.335C70.9453 127.045 71.4766 126.827 72.0675 126.679C72.6641 126.526 73.2805 126.415 73.9169 126.347C74.6839 126.267 75.3061 126.196 75.7834 126.134C76.2607 126.065 76.6072 125.963 76.8232 125.827C77.0447 125.685 77.1555 125.466 77.1555 125.17V125.119C77.1555 124.477 76.9652 123.98 76.5845 123.628C76.2038 123.276 75.6555 123.099 74.9396 123.099C74.1839 123.099 73.5845 123.264 73.1413 123.594C72.7038 123.923 72.4084 124.313 72.255 124.761L69.3743 124.352C69.6016 123.557 69.9766 122.892 70.4993 122.358C71.022 121.818 71.6612 121.415 72.4169 121.148C73.1726 120.875 74.0078 120.739 74.9226 120.739C75.5533 120.739 76.1811 120.813 76.8061 120.96C77.4311 121.108 78.0021 121.352 78.5192 121.693C79.0362 122.028 79.451 122.486 79.7635 123.065C80.0817 123.645 80.2408 124.369 80.2408 125.239V134H77.2749V132.202H77.1726C76.9851 132.565 76.7209 132.906 76.38 133.224C76.0447 133.537 75.6214 133.79 75.1101 133.983C74.6044 134.17 74.0107 134.264 73.3288 134.264ZM74.13 131.997C74.7493 131.997 75.2862 131.875 75.7408 131.631C76.1953 131.381 76.5447 131.051 76.7891 130.642C77.0391 130.233 77.1641 129.787 77.1641 129.304V127.761C77.0675 127.841 76.9027 127.915 76.6697 127.983C76.4425 128.051 76.1868 128.111 75.9027 128.162C75.6186 128.213 75.3374 128.259 75.059 128.298C74.7805 128.338 74.5391 128.372 74.3345 128.401C73.8743 128.463 73.4624 128.565 73.0987 128.707C72.7351 128.849 72.4481 129.048 72.2379 129.304C72.0277 129.554 71.9226 129.878 71.9226 130.276C71.9226 130.844 72.13 131.273 72.5447 131.563C72.9595 131.852 73.4879 131.997 74.13 131.997Z" fill="#F7F7F7"/>
<path d="M58.2223 134H52.3075V116.545H58.3416C60.0746 116.545 61.5632 116.895 62.8075 117.594C64.0575 118.287 65.0178 119.284 65.6882 120.585C66.3587 121.886 66.6939 123.443 66.6939 125.256C66.6939 127.074 66.3558 128.636 65.6797 129.943C65.0092 131.25 64.0405 132.253 62.7734 132.952C61.5121 133.651 59.995 134 58.2223 134ZM55.4695 131.264H58.0689C59.2848 131.264 60.299 131.043 61.1115 130.599C61.924 130.151 62.5348 129.483 62.9439 128.597C63.353 127.705 63.5575 126.591 63.5575 125.256C63.5575 123.92 63.353 122.813 62.9439 121.932C62.5348 121.045 61.9297 120.384 61.1285 119.946C60.3331 119.503 59.3445 119.281 58.1626 119.281H55.4695V131.264Z" fill="#F7F7F7"/>
<path d="M30.9091 134V116.545H37.4545C38.7955 116.545 39.9205 116.795 40.8295 117.295C41.7443 117.795 42.4347 118.483 42.9006 119.358C43.3722 120.227 43.608 121.216 43.608 122.324C43.608 123.443 43.3722 124.438 42.9006 125.307C42.429 126.176 41.733 126.861 40.8125 127.361C39.892 127.855 38.7585 128.102 37.4119 128.102H33.0739V125.503H36.9858C37.7699 125.503 38.4119 125.366 38.9119 125.094C39.4119 124.821 39.7812 124.446 40.0199 123.969C40.2642 123.491 40.3864 122.943 40.3864 122.324C40.3864 121.705 40.2642 121.159 40.0199 120.688C39.7812 120.216 39.4091 119.849 38.9034 119.588C38.4034 119.321 37.7585 119.188 36.9687 119.188H34.071V134H30.9091Z" fill="#F7F7F7"/>
<path d="M15.2997 134V116.545H21.8452C23.1861 116.545 24.3111 116.778 25.2202 117.244C26.1349 117.71 26.8253 118.364 27.2912 119.205C27.7628 120.04 27.9986 121.014 27.9986 122.128C27.9986 123.247 27.7599 124.219 27.2827 125.043C26.8111 125.861 26.1151 126.494 25.1946 126.943C24.2741 127.386 23.1435 127.608 21.8026 127.608H17.1406V124.983H21.3764C22.1605 124.983 22.8026 124.875 23.3026 124.659C23.8026 124.438 24.1719 124.116 24.4105 123.696C24.6548 123.27 24.777 122.747 24.777 122.128C24.777 121.509 24.6548 120.98 24.4105 120.543C24.1662 120.099 23.794 119.764 23.294 119.537C22.794 119.304 22.1491 119.188 21.3594 119.188H18.4616V134H15.2997ZM24.3168 126.091L28.6378 134H25.1094L20.8651 126.091H24.3168Z" fill="#F7F7F7"/>
<path d="M0.721588 134V116.545H12.0739V119.196H3.88352V123.935H11.4858V126.585H3.88352V131.349H12.142V134H0.721588Z" fill="#F7F7F7"/>
<path d="M93.3141 89.2608H78.8816L59.8102 61.4268H41.7696V89.2608H28.8835V49.0561H61.7019C66.6166 49.0561 71.0881 46.0717 72.8278 41.4765C76.1704 32.6469 69.7377 24.3148 61.3591 24.3148H16V11.9441H62.1323C63.9905 11.9441 65.8022 12.1477 67.5444 12.5317C78.7502 15.0059 87.1313 24.4797 87.1313 36.4277C87.1313 46.6464 80.9975 55.4348 72.2118 59.3109L93.3167 89.2608H93.3141ZM93.3141 45.8526L91.7394 46.4016L84.884 58.1898C84.5232 58.8367 84.5541 59.633 84.9613 60.2516L106.056 91.9153C106.561 92.4205 107.223 92.3535 107.844 92.3535H108.169C108.891 92.3097 109.533 92.2504 109.844 91.5983L116.007 80.8591C116.432 79.8565 115.604 78.5318 114.762 78.3153C112.718 77.7922 111.094 75.6917 110.917 75.3825M94.046 42.5332L146.31 18.4001C146.611 18.2609 146.962 18.4387 147.029 18.7635L149.201 29.1806C149.297 29.6445 149.915 29.7424 150.152 29.3326L161.58 9.54215C161.729 9.28185 161.629 8.95197 161.358 8.82053L143.266 0.0528235C142.871 -0.137891 142.436 0.217765 142.542 0.64043L145.271 11.5318C145.33 11.7689 145.214 12.0163 144.993 12.122L93.6105 36.5437C93.4301 36.6288 93.3167 36.8092 93.3167 37.0076V42.0615C93.3167 42.4378 93.7058 42.6878 94.0486 42.528L94.046 42.5332ZM113.772 73.2717C116.643 77.2458 120.47 73.2717 120.47 73.2717L143.735 33.2655C143.923 32.9511 143.673 32.5671 143.281 32.5671H130.346C129.79 32.5671 129.277 32.8402 129.001 33.2861L109.332 66.6199C109.332 66.6199 110.898 69.2976 113.767 73.2743L113.772 73.2717Z" fill="#F7F7F7"/>
</svg>
