<svg width="32" height="32" viewBox="0 0 32 32" fill="none" xmlns="http://www.w3.org/2000/svg">
<path d="M29.074 13.3887H28V13.3334H16V18.6667H23.5353C22.436 21.7714 19.482 24 16 24C11.582 24 7.99999 20.418 7.99999 16C7.99999 11.582 11.582 8.00002 16 8.00002C18.0393 8.00002 19.8947 8.76935 21.3073 10.026L25.0787 6.25469C22.6973 4.03535 19.512 2.66669 16 2.66669C8.63666 2.66669 2.66666 8.63669 2.66666 16C2.66666 23.3634 8.63666 29.3334 16 29.3334C23.3633 29.3334 29.3333 23.3634 29.3333 16C29.3333 15.106 29.2413 14.2334 29.074 13.3887Z" fill="#FFC107"/>
<path d="M4.20401 9.79402L8.58468 13.0067C9.77001 10.072 12.6407 8.00002 16 8.00002C18.0393 8.00002 19.8947 8.76935 21.3073 10.026L25.0787 6.25469C22.6973 4.03535 19.512 2.66669 16 2.66669C10.8787 2.66669 6.43734 5.55802 4.20401 9.79402Z" fill="#FF3D00"/>
<path d="M16 29.3333C19.444 29.3333 22.5733 28.0153 24.9393 25.872L20.8127 22.38C19.474 23.394 17.81 24 16 24C12.532 24 9.58734 21.7887 8.478 18.7027L4.13 22.0527C6.33667 26.3707 10.818 29.3333 16 29.3333Z" fill="#4CAF50"/>
<path d="M29.074 13.3887H28V13.3333H16V18.6667H23.5353C23.0073 20.158 22.048 21.444 20.8107 22.3807L20.8127 22.3793L24.9393 25.8713C24.6473 26.1367 29.3333 22.6667 29.3333 16C29.3333 15.106 29.2413 14.2333 29.074 13.3887Z" fill="#1976D2"/>
</svg>
