<svg width="65" height="64" viewBox="0 0 65 64" fill="none" xmlns="http://www.w3.org/2000/svg">
<rect x="0.5" width="64" height="64" rx="16" fill="#F7F7F7" fill-opacity="0.05"/>
<path d="M40.4177 19.6923C40.4177 21.7324 39.5835 23.689 38.0987 25.1316C36.6138 26.5742 34.5999 27.3846 32.5 27.3846C30.4001 27.3846 28.3862 26.5742 26.9013 25.1316C25.4165 23.689 24.5823 21.7324 24.5823 19.6923C24.5823 17.6522 25.4165 15.6956 26.9013 14.253C28.3862 12.8104 30.4001 12 32.5 12C34.5999 12 36.6138 12.8104 38.0987 14.253C39.5835 15.6956 40.4177 17.6522 40.4177 19.6923ZM16.6667 48.6523C16.7345 44.6161 18.4325 40.7675 21.3944 37.9365C24.3564 35.1055 28.345 33.5189 32.5 33.5189C36.655 33.5189 40.6436 35.1055 43.6055 37.9365C46.5675 40.7675 48.2655 44.6161 48.3333 48.6523C43.366 50.8651 37.9646 52.0072 32.5 52C26.8499 52 21.487 50.802 16.6667 48.6523Z" stroke="#F7F7F7" stroke-opacity="0.1" stroke-width="2" stroke-linecap="round" stroke-linejoin="round"/>
</svg>
