<svg width="800" height="800" viewBox="0 0 800 800" fill="none" xmlns="http://www.w3.org/2000/svg">
<path d="M265.009 616.21C264.53 616.21 264.007 616.123 263.484 615.992C211 599.994 154.158 542.629 141.822 493.24C141.124 490.451 142.824 487.661 145.57 486.963C148.36 486.266 151.15 487.966 151.848 490.712C163.225 536.264 217.888 591.232 266.491 606.097C269.238 606.925 270.763 609.802 269.935 612.548C269.281 614.771 267.232 616.21 265.009 616.21Z" fill="#575757"/>
<path d="M290.03 681.292C289.638 681.292 289.246 681.249 288.853 681.161C245.437 671.048 194.959 638.617 150.409 592.149C108.736 548.733 81.7534 502.526 80.0098 471.577C79.8354 468.743 82.0149 466.259 84.8919 466.128C87.7253 465.954 90.21 468.133 90.3408 471.01C91.9101 499.17 118.413 543.894 157.863 585C201.061 630.073 249.665 661.415 291.207 671.092C293.997 671.746 295.741 674.536 295.087 677.325C294.52 679.679 292.384 681.292 290.03 681.292Z" fill="#575757"/>
<path d="M512.562 228.34C510.252 228.34 508.159 226.815 507.549 224.504C500.269 196.868 467.184 157.2 437.063 149.441C434.317 148.743 432.616 145.91 433.358 143.12C434.099 140.33 436.888 138.674 439.678 139.415C473.592 148.177 509.423 190.939 517.575 221.889C518.316 224.635 516.66 227.468 513.87 228.209C513.434 228.297 512.998 228.34 512.562 228.34Z" fill="#575757"/>
<path d="M577.816 237.536C575.506 237.536 573.413 235.967 572.803 233.656C553.405 157.285 480.87 97.6966 439.459 90.2862C436.625 89.7631 434.794 87.1041 435.274 84.2707C435.797 81.4372 438.456 79.6064 441.289 80.0859C486.406 88.1938 562.08 149.613 582.829 231.084C583.526 233.874 581.87 236.664 579.08 237.362C578.644 237.492 578.252 237.536 577.816 237.536Z" fill="#575757"/>
<path d="M449.005 373.237C457.331 382.434 464.829 394.509 461.646 397.691C458.464 400.873 448.7 395.119 441.246 387.621C433.792 380.167 415.963 459.503 414.22 463.513C412.912 466.521 392.163 490.321 381.309 512.945C377.691 520.486 378.214 543.241 376.862 544.592C371.414 550.041 364.483 549.474 349.531 536.266C334.579 523.058 326.82 601.739 344.649 614.163C375.119 635.435 436.059 719.958 516.571 719.958C609.724 719.958 695.991 622.794 695.991 551.479C695.991 480.165 675.067 453.138 676.462 393.375C677.595 342.767 714.429 318.617 714.429 293.335C714.429 272.062 682.826 266.875 672.452 266.875C654.056 266.875 606.891 290.458 606.891 352.531C606.891 376.68 600.004 398.519 575.288 398.519C550.572 398.519 522.979 364.606 506.283 338.146" fill="url(#paint0_linear_54_860)"/>
<path d="M714.388 293.335C714.388 281.784 705.016 274.983 694.815 271.147C707.064 311.73 644.948 313.474 644.948 451.744C644.948 590.014 564.435 630.248 531.088 637.179C497.741 644.067 438.981 646.072 394.257 591.191C380.526 574.321 361.913 556.013 341.207 538.708C332.445 553.311 330.571 604.356 344.651 614.163C375.121 635.436 436.06 719.958 516.573 719.958C609.726 719.958 695.992 622.794 695.992 551.48C695.992 480.165 675.069 453.139 676.464 393.376C677.597 342.767 714.388 318.618 714.388 293.335Z" fill="url(#paint1_linear_54_860)"/>
<path d="M349.531 536.267C334.58 523.059 299.227 485.396 276.212 466.957C253.196 448.562 233.1 448.78 219.282 469.093C205.464 489.407 245.742 525.064 254.939 534.261C269.019 548.341 326.82 601.74 344.649 614.207" fill="url(#paint2_linear_54_860)"/>
<path d="M414.22 463.51C412.476 467.521 400.75 470.31 377.429 444.941C359.601 425.543 311.869 369.79 283.709 344.507C255.549 319.225 233.667 308.85 215.271 322.102C196.876 335.353 207.338 362.903 227.913 385.919C253.37 414.383 282.663 443.415 310.692 471.313C332.618 493.108 382.268 539.184 376.819 544.633" fill="url(#paint3_linear_54_860)"/>
<path d="M310.735 471.271C331.441 491.846 376.776 533.998 377.255 543.283C383.794 533.083 371.85 502.744 359.208 492.108C286.15 430.601 215.577 331.432 206.597 334.396C202.761 348.825 212.482 368.615 227.913 385.92C253.37 414.342 282.663 443.417 310.735 471.271Z" fill="url(#paint4_linear_54_860)"/>
<path d="M506.24 338.19C489.545 311.73 421.107 226.641 404.455 202.492C387.76 178.342 365.354 178.342 349.836 189.284C334.318 200.225 329.697 222.064 364.657 268.488C386.714 297.781 405.022 324.72 449.049 373.28L500.224 369.706L506.24 338.19Z" fill="url(#paint5_linear_54_860)"/>
<path d="M441.247 387.622C433.793 380.168 367.666 301.792 352.714 284.966C324.686 253.493 289.159 186.058 246.789 216.092C224.514 231.872 236.589 254.757 242.909 263.955C249.23 273.153 331.442 368.05 339.506 376.071C347.571 384.135 415.965 459.46 414.265 463.47" fill="url(#paint6_linear_54_860)"/>
<path d="M449.005 373.233C457.026 382.082 464.218 393.546 461.952 397.252C488.629 375.805 432.223 312.773 400.271 274.936C375.555 245.643 368.798 208.373 351.1 188.408C350.664 188.67 350.272 188.975 349.836 189.236C334.318 200.178 329.697 222.017 364.657 268.441C386.67 297.734 405.022 324.717 449.005 373.233Z" fill="url(#paint7_linear_54_860)"/>
<path d="M339.462 376.113C347.526 384.177 415.92 459.502 414.22 463.512C435.361 435.048 353.411 351.397 313.743 309.114C279.35 272.454 273.465 240.371 239.9 222.368C227.433 237.451 237.328 255.933 242.864 263.997C249.185 273.195 331.441 368.092 339.462 376.113Z" fill="url(#paint8_linear_54_860)"/>
<path d="M412.693 465.217C410.296 466.699 405.37 466.829 397.742 462.427C403.409 467.004 408.639 468.747 412.693 465.217Z" fill="url(#paint9_linear_54_860)"/>
<path d="M677.29 275.506C694.857 272.367 697.952 274.373 694.813 271.147C686.269 267.965 677.115 266.875 672.408 266.875C654.012 266.875 606.847 290.458 606.847 352.531C606.847 376.68 599.96 398.519 575.2 398.519C565.436 398.519 555.279 393.245 545.471 385.224C588.888 433.305 622.932 388.014 628.119 356.977C633.307 325.941 625.765 284.747 677.29 275.506Z" fill="url(#paint10_radial_54_860)"/>
<path d="M344.518 193.945C333.795 206.107 334.144 227.903 364.614 268.442C386.671 297.735 404.979 324.674 449.006 373.234C457.331 382.432 464.829 394.507 461.647 397.689C469.014 347.385 397.394 297.909 374.117 259.985C355.678 229.908 352.016 212.166 344.518 193.945Z" fill="url(#paint11_linear_54_860)"/>
<path d="M339.462 376.113C347.526 384.177 415.92 459.502 414.22 463.512C429.302 452.745 419.015 435.963 395.694 412.642C347.875 364.823 281.312 300.57 254.547 247.651C252.019 242.638 247.311 238.933 241.775 238.235C227.346 236.361 238.07 256.979 242.908 263.997C249.185 273.195 331.441 368.092 339.462 376.113Z" fill="url(#paint12_linear_54_860)"/>
<path d="M227.913 385.919C253.37 414.384 282.663 443.415 310.692 471.314C332.618 493.109 382.268 539.184 376.819 544.633C407.594 518.74 264.66 425.151 206.554 334.438C202.761 348.78 212.482 368.614 227.913 385.919Z" fill="url(#paint13_linear_54_860)"/>
<path d="M370.543 549.779C373.463 548.646 374.989 547.295 375.468 545.813C370.194 549.867 363.263 548.428 349.532 536.266C334.58 523.058 299.228 485.396 276.212 466.957C266.099 458.893 256.553 454.403 247.834 453.618C260.301 461.421 254.504 464.211 282.228 485.483C297.136 496.904 351.537 557.233 370.543 549.779Z" fill="url(#paint14_linear_54_860)"/>
<path d="M334.319 411.772C354.501 436.357 393.907 476.94 411.605 465.737C406.723 467.394 395.607 464.691 377.473 444.945C359.645 425.547 311.913 369.794 283.753 344.511C260.955 324.024 242.255 313.344 226.213 317.049C272.899 332.393 315.182 388.538 334.319 411.772Z" fill="url(#paint15_linear_54_860)"/>
<path d="M356.158 305.975C388.371 341.022 436.191 410.55 460.427 398.388C456.46 399.608 447.916 394.334 441.247 387.621C433.793 380.167 367.666 301.791 352.714 284.965C333.273 263.169 310.3 224.112 283.884 212.168C310.518 233.179 330.047 277.598 356.158 305.975Z" fill="url(#paint16_linear_54_860)"/>
<path d="M545.472 385.266C545.516 385.266 545.516 385.266 545.472 385.266C530.433 372.973 516.31 354.186 506.197 338.188C489.545 311.728 421.108 226.639 404.456 202.49C399.356 195.123 393.776 190.023 387.979 186.797C395.738 197.956 400.14 213.867 417.707 233.57C445.867 265.173 482.701 322.103 495.343 341.675C507.94 361.16 528.341 402.397 545.472 385.266Z" fill="url(#paint17_linear_54_860)"/>
<path d="M637.711 665.906C627.249 640.449 611.949 624.931 589.849 639.49C529.562 679.202 460.21 665.776 373.246 595.507C295.698 532.78 255.594 487.969 217.845 471.753C208.778 492.371 246.092 525.457 254.897 534.262C268.977 548.342 326.778 601.741 344.607 614.208C375.077 635.48 436.017 720.002 516.529 720.002C561.558 719.959 604.887 697.335 637.711 665.906Z" fill="url(#paint18_linear_54_860)"/>
<path d="M676.42 393.375C677.553 342.766 714.388 318.617 714.388 293.334C714.388 285.88 710.508 280.432 705.015 276.465C711.728 296.168 695.731 313.648 671.843 343.377C645.95 375.59 640.24 425.589 658.025 475.631C675.853 525.673 653.404 594.678 617.18 616.517C580.956 638.356 532.832 734.386 395.041 625.889C394.998 625.845 394.998 625.845 394.954 625.801C386.541 617.999 378.215 611.068 369.802 605.837C311.609 569.787 278.436 537.356 253.371 510.112C248.446 504.75 235.194 484.219 219.414 490.975C227.304 508.847 248.533 527.897 254.897 534.261C268.977 548.341 326.778 601.739 344.607 614.206C346.917 615.819 349.445 617.824 352.104 620.135C352.802 620.745 353.499 621.355 354.197 621.965C354.371 622.14 354.589 622.314 354.763 622.445C355.199 622.837 355.679 623.273 356.115 623.666C356.202 623.753 356.333 623.84 356.42 623.971C374.51 640.404 399.4 667.605 429.914 688.834C429.914 688.834 429.958 688.834 429.958 688.877C432.617 690.752 435.363 692.583 438.109 694.326C438.153 694.37 438.196 694.37 438.24 694.413C440.986 696.157 443.776 697.857 446.566 699.47C446.609 699.47 446.609 699.513 446.653 699.513C467.751 711.632 491.159 720.001 516.442 720.001C609.595 720.001 695.861 622.837 695.861 551.523C695.861 480.208 675.069 453.182 676.42 393.375Z" fill="url(#paint19_radial_54_860)"/>
<defs>
<linearGradient id="paint0_linear_54_860" x1="650.704" y1="738.405" x2="573.943" y2="558.565" gradientUnits="userSpaceOnUse">
<stop offset="0.00132565" stop-color="#FFCB4B"/>
<stop offset="1" stop-color="#FFD748"/>
</linearGradient>
<linearGradient id="paint1_linear_54_860" x1="665.983" y1="613.326" x2="504.983" y2="421.276" gradientUnits="userSpaceOnUse">
<stop offset="0.00132565" stop-color="#FFCB4B"/>
<stop offset="1" stop-color="#FFD748"/>
</linearGradient>
<linearGradient id="paint2_linear_54_860" x1="235.643" y1="485.465" x2="330.518" y2="555.328" gradientUnits="userSpaceOnUse">
<stop offset="0.00132565" stop-color="#FFCB4B"/>
<stop offset="1" stop-color="#FFD748"/>
</linearGradient>
<linearGradient id="paint3_linear_54_860" x1="201.097" y1="300.55" x2="367.56" y2="474.775" gradientUnits="userSpaceOnUse">
<stop offset="0.00132565" stop-color="#FFCB4B"/>
<stop offset="1" stop-color="#FFD748"/>
</linearGradient>
<linearGradient id="paint4_linear_54_860" x1="328.886" y1="404.011" x2="273.859" y2="455.848" gradientUnits="userSpaceOnUse">
<stop stop-color="#FFBC47" stop-opacity="0"/>
<stop offset="1" stop-color="#FFA754"/>
</linearGradient>
<linearGradient id="paint5_linear_54_860" x1="380.895" y1="218.354" x2="477.495" y2="370.154" gradientUnits="userSpaceOnUse">
<stop offset="0.00132565" stop-color="#FFCB4B"/>
<stop offset="1" stop-color="#FFD748"/>
</linearGradient>
<linearGradient id="paint6_linear_54_860" x1="281.18" y1="243.572" x2="412.28" y2="420.672" gradientUnits="userSpaceOnUse">
<stop offset="0.00132565" stop-color="#FFCB4B"/>
<stop offset="1" stop-color="#FFD748"/>
</linearGradient>
<linearGradient id="paint7_linear_54_860" x1="437.096" y1="264.938" x2="354.296" y2="339.688" gradientUnits="userSpaceOnUse">
<stop stop-color="#FFBC47" stop-opacity="0"/>
<stop offset="1" stop-color="#FFA754"/>
</linearGradient>
<linearGradient id="paint8_linear_54_860" x1="360.933" y1="318.196" x2="247.083" y2="401.427" gradientUnits="userSpaceOnUse">
<stop stop-color="#FFBC47" stop-opacity="0"/>
<stop offset="1" stop-color="#FFA754"/>
</linearGradient>
<linearGradient id="paint9_linear_54_860" x1="445.743" y1="434.211" x2="331.893" y2="517.441" gradientUnits="userSpaceOnUse">
<stop stop-color="#FFBC47" stop-opacity="0"/>
<stop offset="1" stop-color="#FFA754"/>
</linearGradient>
<radialGradient id="paint10_radial_54_860" cx="0" cy="0" r="1" gradientUnits="userSpaceOnUse" gradientTransform="translate(595.133 299.083) scale(136.681 136.681)">
<stop stop-color="#FFBC47" stop-opacity="0"/>
<stop offset="1" stop-color="#FFA754"/>
</radialGradient>
<linearGradient id="paint11_linear_54_860" x1="452.249" y1="250.259" x2="381.524" y2="315.809" gradientUnits="userSpaceOnUse">
<stop offset="0.3118" stop-color="#FFBC47" stop-opacity="0"/>
<stop offset="1" stop-color="#FF8900"/>
</linearGradient>
<linearGradient id="paint12_linear_54_860" x1="398.091" y1="285.789" x2="304.941" y2="369.739" gradientUnits="userSpaceOnUse">
<stop offset="0.3118" stop-color="#FFBC47" stop-opacity="0"/>
<stop offset="1" stop-color="#FF8900"/>
</linearGradient>
<linearGradient id="paint13_linear_54_860" x1="366.61" y1="376.589" x2="251.61" y2="473.189" gradientUnits="userSpaceOnUse">
<stop offset="0.3118" stop-color="#FFBC47" stop-opacity="0"/>
<stop offset="1" stop-color="#FF8900"/>
</linearGradient>
<linearGradient id="paint14_linear_54_860" x1="241.128" y1="446.766" x2="374.816" y2="555.441" gradientUnits="userSpaceOnUse">
<stop stop-color="#FFBC47" stop-opacity="0"/>
<stop offset="1" stop-color="#FFBC47"/>
</linearGradient>
<linearGradient id="paint15_linear_54_860" x1="266.716" y1="312.062" x2="371.079" y2="470.762" gradientUnits="userSpaceOnUse">
<stop stop-color="#FFBC47" stop-opacity="0"/>
<stop offset="1" stop-color="#FFBC47"/>
</linearGradient>
<linearGradient id="paint16_linear_54_860" x1="348.464" y1="323.397" x2="377.789" y2="300.972" gradientUnits="userSpaceOnUse">
<stop stop-color="#FFBC47" stop-opacity="0"/>
<stop offset="1" stop-color="#FFA754"/>
</linearGradient>
<linearGradient id="paint17_linear_54_860" x1="493.174" y1="411.993" x2="454.073" y2="225.692" gradientUnits="userSpaceOnUse">
<stop stop-color="#FFBC47" stop-opacity="0"/>
<stop offset="1" stop-color="#FFBC47"/>
</linearGradient>
<linearGradient id="paint18_linear_54_860" x1="403.917" y1="590.796" x2="345.267" y2="644.703" gradientUnits="userSpaceOnUse">
<stop offset="0.3118" stop-color="#FFBC47" stop-opacity="0"/>
<stop offset="1" stop-color="#FF8900"/>
</linearGradient>
<radialGradient id="paint19_radial_54_860" cx="0" cy="0" r="1" gradientUnits="userSpaceOnUse" gradientTransform="translate(442.763 412.639) rotate(48.1401) scale(396.178 359.605)">
<stop offset="0.6134" stop-color="#FFBC47" stop-opacity="0"/>
<stop offset="1" stop-color="#FF8900"/>
</radialGradient>
</defs>
</svg>
